<svg width="64" height="52" viewBox="0 0 64 52" fill="none" xmlns="http://www.w3.org/2000/svg">
<mask id="path-1-inside-1_2927_11468" fill="white">
<path d="M5.72876 19.4522L61.3944 0.103493C62.7723 -0.373077 64.242 0.866005 63.9664 2.39103L59.5573 30.1274C59.4654 30.8899 58.9143 31.4618 58.2713 31.7478L2.60561 51.0965C1.22775 51.5731 -0.241973 50.334 0.033599 48.809L4.44276 21.0726C4.53462 20.3101 4.9939 19.6429 5.72876 19.4522Z"/>
</mask>
<path d="M5.72876 19.4522L61.3944 0.103493C62.7723 -0.373077 64.242 0.866005 63.9664 2.39103L59.5573 30.1274C59.4654 30.8899 58.9143 31.4618 58.2713 31.7478L2.60561 51.0965C1.22775 51.5731 -0.241973 50.334 0.033599 48.809L4.44276 21.0726C4.53462 20.3101 4.9939 19.6429 5.72876 19.4522Z" stroke="#FFC501" stroke-width="4" mask="url(#path-1-inside-1_2927_11468)"/>
</svg>
