<svg class="text-[#CEDCD9]" viewBox="0 0 16 18" fill="currentColor" xmlns="http://www.w3.org/2000/svg"><path d="M7.77273 9C8.65118 9 9.50991 8.73608 10.2403 8.24162C10.9707 7.74715 11.54 7.04434 11.8762 6.22208C12.2124 5.39981 12.3003 4.49501 12.1289 3.6221C11.9576 2.74918 11.5345 1.94736 10.9134 1.31802C10.2922 0.688685 9.50081 0.260102 8.63923 0.0864683C7.77765 -0.0871652 6.8846 0.00194979 6.07302 0.342544C5.26143 0.683138 4.56775 1.25991 4.07971 1.99994C3.59166 2.73996 3.33117 3.60999 3.33117 4.5C3.33117 5.69348 3.79912 6.83807 4.63207 7.68198C5.46502 8.5259 6.59475 9 7.77273 9ZM10.8818 10.125H10.3024C9.50926 10.4956 8.64619 10.6875 7.77273 10.6875C6.89926 10.6875 6.03619 10.4956 5.24301 10.125H4.66364C3.42684 10.1253 2.24078 10.6232 1.36624 11.5092C0.491692 12.3953 0.000261672 13.5969 0 14.85L0 16.3125C0.000130816 16.76 0.175654 17.1892 0.487983 17.5056C0.800312 17.822 1.22388 17.9999 1.66558 18H13.8799C14.3216 17.9999 14.7451 17.822 15.0575 17.5056C15.3698 17.1892 15.5453 16.76 15.5455 16.3125V14.85C15.5452 13.5969 15.0538 12.3953 14.1792 11.5092C13.3047 10.6232 12.1186 10.1253 10.8818 10.125Z" fill="currentColor"></path></svg>